<svg xmlns="http://www.w3.org/2000/svg">
  <symbol id="menu" viewBox="0 0 24 24">
    <path d="M0 0h24v24H0z" fill="none" />
    <path d="M3 18h18v-2H3v2zm0-5h18v-2H3v2zm0-7v2h18V6H3z" />
  </symbol>
  <symbol id="close" viewBox="0 0 24 24">
    <path d="M0 0h24v24H0z" fill="none" />
    <path
      d="M19 6.41L17.59 5 12 10.59 6.41 5 5 6.41 10.59 12 5 17.59 6.41 19 12 13.41 17.59 19 19 17.59 13.41 12z"
    />
  </symbol>
  <symbol id="no-agency-records" viewBox="0 0 143.121 143.121">
    <g id="empty-house" transform="translate(-2.074 -13.892)" opacity="0.5">
      <path
        id="Trazado_59"
        data-name="Trazado 59"
        d="M91.1,2l4.617,13.85H8L12.617,2Z"
        transform="translate(10.233 14.2)"
        fill="#c9c9c9"
      />
      <path
        id="Trazado_60"
        data-name="Trazado 60"
        d="M110.186,10.308v4.617a2.315,2.315,0,0,1-2.308,2.308H6.308A2.315,2.315,0,0,1,4,14.925V10.308A2.315,2.315,0,0,1,6.308,8h101.57A2.315,2.315,0,0,1,110.186,10.308Z"
        transform="translate(5 22.051)"
        fill="#e6e9ed"
      />
      <path
        id="Trazado_61"
        data-name="Trazado 61"
        d="M11.234,32h94.644a34.447,34.447,0,0,0-23.523,9.234H4.308A2.315,2.315,0,0,1,2,38.925V34.308A2.315,2.315,0,0,1,4.308,32Z"
        transform="translate(2.383 53.452)"
        fill="#e6e9ed"
      />
      <path
        id="Trazado_62"
        data-name="Trazado 62"
        d="M102.953,12V58.26c-.762-.069-1.524-.092-2.308-.092H6V12Z"
        transform="translate(7.616 27.284)"
        fill="#8e8e8e"
      />
      <path
        id="Trazado_63"
        data-name="Trazado 63"
        d="M12,16V43.7H39.7V16H12Z"
        transform="translate(15.467 32.518)"
        fill="#e9e9e9"
      />
      <path
        id="Trazado_64"
        data-name="Trazado 64"
        d="M43.85,16H30V43.7H57.7V16Z"
        transform="translate(39.018 32.518)"
        fill="#e9e9e9"
      />
      <path
        id="Trazado_65"
        data-name="Trazado 65"
        d="M65.318,74.561H33V52.4A34.67,34.67,0,0,0,65.318,74.561Z"
        transform="translate(42.943 80.144)"
        fill="#e9e9e9"
      />
      <path
        id="Trazado_66"
        data-name="Trazado 66"
        d="M27.084,45.234H72.629A35.129,35.129,0,0,1,79.739,36H4V96.018H34.009v-27.7H69.328a34.209,34.209,0,0,1-.693-6.925c0-.785.023-1.547.092-2.308H13.234V45.234Z"
        transform="translate(5 58.686)"
        fill="#8e8e8e"
      />
      <path
        id="Trazado_67"
        data-name="Trazado 67"
        d="M52.319,50H17V77.7H53.934V55.54A34.024,34.024,0,0,1,52.319,50Z"
        transform="translate(22.009 77.004)"
        fill="#e9e9e9"
      />
      <path
        id="Trazado_68"
        data-name="Trazado 68"
        d="M49.551,40H8V53.85H63.494A34.191,34.191,0,0,1,67.4,40Z"
        transform="translate(10.233 63.92)"
        fill="#e9e9e9"
      />
      <path
        id="Trazado_69"
        data-name="Trazado 69"
        d="M66.626,32c.785,0,1.547.023,2.308.092a34.619,34.619,0,1,1-34.626,47A34.621,34.621,0,0,1,32,66.626c0-.785.023-1.547.092-2.308a34.191,34.191,0,0,1,3.9-13.85,35.129,35.129,0,0,1,7.11-9.234A34.447,34.447,0,0,1,66.626,32ZM92.018,66.626A25.231,25.231,0,0,0,87.7,52.476a24.73,24.73,0,0,0-6.925-6.925A25.383,25.383,0,0,0,45.55,80.777,24.73,24.73,0,0,0,52.476,87.7,25.383,25.383,0,0,0,92.018,66.626Z"
        transform="translate(41.635 53.452)"
        fill="#afafaf"
      />
      <path
        id="Trazado_70"
        data-name="Trazado 70"
        d="M75.543,40.317,40.317,75.543A25.383,25.383,0,0,1,75.543,40.317Z"
        transform="translate(46.868 58.686)"
        fill="#e6e9ed"
      />
      <path
        id="Trazado_71"
        data-name="Trazado 71"
        d="M76.1,40.87A25.383,25.383,0,0,1,40.87,76.1Z"
        transform="translate(53.24 65.058)"
        fill="#e6e9ed"
      />
      <path
        id="Trazado_72"
        data-name="Trazado 72"
        d="M80.021,44.8,44.8,80.021A24.729,24.729,0,0,1,37.87,73.1L73.1,37.87A24.729,24.729,0,0,1,80.021,44.8Z"
        transform="translate(49.315 61.133)"
        fill="#afafaf"
      />
      <path
        id="Trazado_73"
        data-name="Trazado 73"
        d="M111.8,70.573V28.7a4.621,4.621,0,0,0,4.617-4.617V19.467A4.621,4.621,0,0,0,111.8,14.85H106.54L101.923,1H20.111L15.494,14.85H10.234a4.621,4.621,0,0,0-4.617,4.617v4.617A4.621,4.621,0,0,0,10.234,28.7V70.252H5.617A4.621,4.621,0,0,0,1,74.869v4.617A4.621,4.621,0,0,0,5.617,84.1v60.018h101.57A36.918,36.918,0,0,0,111.8,70.573ZM23.44,5.617H98.6l3.079,9.234H20.361ZM10.234,19.467H111.8l0,4.617H10.234ZM14.85,28.7h92.336V70.252H14.85ZM5.617,74.869H89.345a37.012,37.012,0,0,0-6.507,4.617H5.617ZM10.234,84.1H78.4a37.176,37.176,0,0,0-3.151,4.617H14.85v18.467h55.4a36.712,36.712,0,0,0,.321,4.617H35.626v27.7H10.234ZM58.71,116.42H71.469a36.577,36.577,0,0,0,1.092,3.5V139.5H58.71ZM54.093,139.5H40.243V116.42h13.85Zm16.48-36.934H61.018V93.336H72.971A36.551,36.551,0,0,0,70.573,102.57Zm-51.106,0V93.336H28.7v9.234Zm13.85-9.234h9.234v9.234H33.318Zm13.85,0H56.4v9.234H47.168ZM77.177,139.5V128.636A37.14,37.14,0,0,0,89.345,139.5Zm30.009,0A32.318,32.318,0,1,1,139.5,107.186,32.353,32.353,0,0,1,107.186,139.5Z"
        transform="translate(1.074 12.892)"
      />
      <path
        id="Trazado_75"
        data-name="Trazado 75"
        d="M29,47.318H61.318V15H29Zm4.617-13.85H42.85V42.7H33.617ZM47.467,42.7V33.467H56.7V42.7ZM56.7,28.85H47.467V19.617H56.7ZM42.85,19.617V28.85H33.617V19.617Z"
        transform="translate(37.71 31.21)"
      />
      <path
        id="Trazado_76"
        data-name="Trazado 76"
        d="M11,47.318H43.318V15H11Zm4.617-13.85H24.85V42.7H15.617ZM29.467,42.7V33.467H38.7V42.7ZM38.7,28.85H29.467V19.617H38.7ZM24.85,19.617V28.85H15.617V19.617Z"
        transform="translate(14.158 31.21)"
      />
      <path
        id="Trazado_77"
        data-name="Trazado 77"
        d="M7,49h4.617v4.617H7Z"
        transform="translate(8.925 75.695)"
      />
      <path
        id="Trazado_78"
        data-name="Trazado 78"
        d="M7,57h4.617v4.617H7Z"
        transform="translate(8.925 86.162)"
      />
      <path
        id="Trazado_79"
        data-name="Trazado 79"
        d="M7,53h4.617v4.617H7Z"
        transform="translate(8.925 80.929)"
      />
      <path
        id="Trazado_74"
        data-name="Trazado 74"
        d="M62.7,35A27.7,27.7,0,1,0,90.4,62.7,27.732,27.732,0,0,0,62.7,35Zm0,4.617a22.923,22.923,0,0,1,10.395,2.5L42.117,73.1A23.041,23.041,0,0,1,62.7,39.617ZM44.668,77.073,77.073,44.668a23.27,23.27,0,0,1,3.661,3.661L48.329,80.734a23.27,23.27,0,0,1-3.661-3.661ZM62.7,85.785a22.922,22.922,0,0,1-10.395-2.5L83.283,52.308a22.878,22.878,0,0,1,2.5,10.392A23.11,23.11,0,0,1,62.7,85.785Z"
        transform="translate(45.56 57.378)"
      />
    </g>
  </symbol>
  <symbol id="code" viewBox="0 0 24 24">
    <g><path d="M0,0h24v24H0V0z" fill="none" /></g>
    <g>
      <path
        d="M21.41,11.41l-8.83-8.83C12.21,2.21,11.7,2,11.17,2H4C2.9,2,2,2.9,2,4v7.17c0,0.53,0.21,1.04,0.59,1.41l8.83,8.83 c0.78,0.78,2.05,0.78,2.83,0l7.17-7.17C22.2,13.46,22.2,12.2,21.41,11.41z M6.5,8C5.67,8,5,7.33,5,6.5S5.67,5,6.5,5S8,5.67,8,6.5 S7.33,8,6.5,8z"
      />
    </g>
  </symbol>
  <symbol id="address" viewBox="0 0 24 24">
    <path d="M0 0h24v24H0z" fill="none" />
    <path
      d="M12 2C8.13 2 5 5.13 5 9c0 5.25 7 13 7 13s7-7.75 7-13c0-3.87-3.13-7-7-7zm0 9.5c-1.38 0-2.5-1.12-2.5-2.5s1.12-2.5 2.5-2.5 2.5 1.12 2.5 2.5-1.12 2.5-2.5 2.5z"
    />
  </symbol>
  <symbol id="postal-code" viewBox="0 0 24 24">
    <path d="M-618-3000H782V600H-618zM0 0h24v24H0z" fill="none" />
    <path
      d="M20 6H10v6H8V4h6V0H6v6H4c-1.1 0-2 .9-2 2v12c0 1.1.9 2 2 2h16c1.1 0 2-.9 2-2V8c0-1.1-.9-2-2-2z"
    />
  </symbol>
  <symbol id="fax" viewBox="0 0 24 24">
    <path d="M0 0h24v24H0z" fill="none" />
    <path
      d="M19 8H5c-1.66 0-3 1.34-3 3v6h4v4h12v-4h4v-6c0-1.66-1.34-3-3-3zm-3 11H8v-5h8v5zm3-7c-.55 0-1-.45-1-1s.45-1 1-1 1 .45 1 1-.45 1-1 1zm-1-9H6v4h12V3z"
    />
  </symbol>
  <symbol id="expand" viewBox="0 0 24 24">
    <path d="M0 0h24v24H0z" fill="none" />
    <path d="M16.59 8.59L12 13.17 7.41 8.59 6 10l6 6 6-6z" />
  </symbol>
  <symbol id="phone" viewBox="0 0 24 24">
    <path d="M0 0h24v24H0z" fill="none" />
    <path
      d="M6.62 10.79c1.44 2.83 3.76 5.14 6.59 6.59l2.2-2.2c.27-.27.67-.36 1.02-.24 1.12.37 2.33.57 3.57.57.55 0 1 .45 1 1V20c0 .55-.45 1-1 1-9.39 0-17-7.61-17-17 0-.55.45-1 1-1h3.5c.55 0 1 .45 1 1 0 1.25.2 2.45.57 3.57.11.35.03.74-.25 1.02l-2.2 2.2z"
    />
  </symbol>
</svg>
